<svg xmlns="http://www.w3.org/2000/svg" viewBox="0 0 750 500"><defs><style>.cls-1{isolation:isolate;}.cls-2{fill:none;}.cls-3{fill:#fff;}.cls-11,.cls-4,.cls-5,.cls-6{fill:#72bdb9;}.cls-4{opacity:0.13;}.cls-5{opacity:0.07;}.cls-17,.cls-26,.cls-27,.cls-33,.cls-35,.cls-6{mix-blend-mode:multiply;}.cls-6{opacity:0.16;}.cls-7{opacity:0.39;}.cls-8{fill:#1f6d69;}.cls-17,.cls-27,.cls-9{fill:#292929;}.cls-10{fill:#ea9977;}.cls-12,.cls-20{fill:#008982;}.cls-12{opacity:0.47;}.cls-13{opacity:0.31;}.cls-14,.cls-22,.cls-23,.cls-25,.cls-28{fill:#d46f40;}.cls-15{fill:#ffd647;}.cls-16{fill:#edbe00;}.cls-17,.cls-26{opacity:0.44;}.cls-18{fill:#a4c555;}.cls-19{fill:#279593;}.cls-20,.cls-31,.cls-35{opacity:0.49;}.cls-21{fill:#c61e36;}.cls-22{opacity:0.21;}.cls-23{opacity:0.36;}.cls-24{opacity:0.5;}.cls-25{opacity:0.68;}.cls-27{opacity:0.57;}.cls-28{opacity:0.22;}.cls-29,.cls-32,.cls-33{fill:#99152a;}.cls-30,.cls-31{fill:#7c9931;}.cls-32{opacity:0.46;}.cls-34,.cls-35{fill:#0a293f;}.cls-36{font-size:25px;font-family:ChronicaPro-Heavy;font-weight:800;}.cls-37{letter-spacing:-0.01em;}.cls-38{font-size:20px;font-family:LionelTextSteam, Lionel Text Steam;}.cls-39{letter-spacing:-0.18em;}.cls-40{letter-spacing:-0.02em;}.cls-41{letter-spacing:-0.01em;}.cls-42{letter-spacing:-0.02em;}.cls-43{letter-spacing:-0.03em;}.cls-44{letter-spacing:-0.02em;}.cls-45{letter-spacing:-0.05em;}.cls-46{letter-spacing:-0.02em;}.cls-47{letter-spacing:-0.03em;}.cls-48{letter-spacing:0em;}.cls-49{letter-spacing:0em;}.cls-50{letter-spacing:-0.01em;}.cls-51{letter-spacing:-0.06em;}.cls-52{letter-spacing:-0.06em;}.cls-53{letter-spacing:-0.02em;}.cls-54{letter-spacing:-0.03em;}.cls-55{letter-spacing:-0.03em;}.cls-56{letter-spacing:-0.02em;}.cls-57{letter-spacing:-0.02em;}.cls-58{letter-spacing:-0.04em;}.cls-59{letter-spacing:-0.06em;}.cls-60{letter-spacing:-0.04em;}.cls-61{letter-spacing:-0.03em;}.cls-62{letter-spacing:-0.01em;}.cls-63{letter-spacing:0em;}.cls-64{letter-spacing:-0.02em;}.cls-65{letter-spacing:-0.05em;}.cls-66{letter-spacing:-0.02em;}.cls-67{letter-spacing:-0.01em;}.cls-68{letter-spacing:-0.03em;}.cls-69{letter-spacing:-0.01em;}.cls-70{letter-spacing:-0.03em;}.cls-71{letter-spacing:-0.03em;}.cls-72{letter-spacing:0.01em;}.cls-73{letter-spacing:0em;}</style></defs><g class="cls-1"><g id="Layer_4" data-name="Layer 4"><rect class="cls-2" x="255.75" y="175.34" width="359.33" height="233.7"/><rect class="cls-3" x="255.75" y="175.34" width="359.33" height="233.7"/><rect class="cls-2" x="255.75" y="175.34" width="359.33" height="233.7"/><path class="cls-4" d="M332.42,480.18l364.22-50.63c93.47,3.1,80.49-147.3,80.69-124.56s.2-87.79.2-87.79S776,166,774.1,151.07c-4.91-38-30-91.43-71.6-114.11-64-34.94-160.29,9.16-212.25,55.8-12.81,11.5-24.41,24.44-38.37,34.53-32.52,23.49-63.68,11.56-99.73,8.88C275.93,130.5,202.71,160.5,169.36,233,118.13,344.34,201.33,498.4,332.42,480.18Z"/><path class="cls-5" d="M395.05,437.43l276.89-35.49c61.85,6.29,62-266.53,7.63-298C631,75.86,558.87,108.68,518,144.6c-9.83,8.63-18.73,18.36-29.41,25.9-24.88,17.57-48.44,8.26-75.79,5.93-57.81-4.91-113.64,17.27-139.54,72C233.47,332.57,295.39,450.2,395.05,437.43Z"/><path class="cls-6" d="M418.89,389.7l151-2.94c39.93-.78,72.07-33.35,72-73.28-.09-33.56-10.7-69.72-50.48-86.54-28-11.83-65.19-4.5-89.27,12.44-5.79,4.06-11.14,8.78-17.33,12.21-14.4,8-26.53,1.62-41.1-1.22-30.81-6-62.13,2.66-79.25,30.6C338.11,323.89,364.55,390.76,418.89,389.7Z"/><rect class="cls-2" x="255.75" y="175.75" width="359.33" height="233.7"/><g class="cls-7"><ellipse class="cls-8" cx="525.9" cy="389.08" rx="85.59" ry="5.35"/></g><path class="cls-3" d="M500.53,272c1.14-.45,2.29-.85,3.44-1.27l.12.42C502.91,271.45,501.73,271.76,500.53,272Z"/><path class="cls-3" d="M507.45,269.61c1.16-.36,2.33-.72,3.51-1.06l.22.86c-1.17.31-2.36.59-3.54.87Z"/><path class="cls-3" d="M514.49,267.6c1.18-.3,2.37-.58,3.56-.86l.22.92c-1.18.3-2.36.59-3.55.87Z"/><path class="cls-3" d="M521.63,266c1.19-.24,2.4-.44,3.6-.66l.13.65c-1.18.29-2.36.59-3.55.86Z"/><path class="cls-3" d="M528.84,264.74c1-.13,2-.27,3.08-.37-1,.27-2,.49-3,.74Z"/><path class="cls-9" d="M575,242.58l-.7,6.2s-3,4.17-2.72,5.27c0,0-3-.8-2.42-2.08,0,0,.06,3.67,1.18,4.54h-3.6l-2.92-6.25Z"/><path class="cls-10" d="M569.2,251.61s-1.54,7.33,0,9.42-5.41,2.07-5.41,2.07l-7.24-3.66s2.31-6.36,2.31-9.61S569.2,251.61,569.2,251.61Z"/><path class="cls-10" d="M573.31,245.49c-.76,6.3-5.57,10.21-10.83,10.27-6.7.09-8.84-6.25-8.08-12.55s5.61-10.91,10.83-10.28S574.07,239.18,573.31,245.49Z"/><path class="cls-9" d="M575.72,383.83s10.9,6.2,10.9,9.5-8.51,2-11.77,0c-3.48-2.16-7.2-3.54-6.61-5.63C569.33,383.83,575.72,383.83,575.72,383.83Z"/><path class="cls-9" d="M568,238.73s-10.75,6.21-16.38,1.94c0,0,5.08-12.36,15.55-9.56S568,238.73,568,238.73Z"/><path class="cls-9" d="M550.54,383.83s-10.11,7.41-9.73,10.69,6.46,1.72,9.27-.89,7.24-9.13,7.24-9.13Z"/><path class="cls-11" d="M567.05,299.58s5.36,1,5.78,2.48c2.89,10.5.53,34.07,1.53,39.82s5.83,36.62,6.29,41.91-12.41,3.91-12.41,3.91l-8.13-45.05a140,140,0,0,1-5.65-33.45,91.09,91.09,0,0,1,.24-10.94c.27-3.17,5.72,2.47,5.72,2.47Z"/><path class="cls-12" d="M580.65,383.79c-.46-5.29-5.29-36.17-6.29-41.91s1.36-29.32-1.53-39.82c-.23-.85-2-1.52-3.52-1.95l-1.13,1.68s1.69,7.42,2.41,14.1,0,23,.91,27.05c.85,3.8,7.52,39.26,8.24,43.11a3,3,0,0,0,.31-.31l.61-1.65C580.66,384,580.66,383.89,580.65,383.79Z"/><path class="cls-11" d="M564.23,309.92,553.7,343l3.4,42.54-10.34,2.12-6.67-42.36s-2.3-38.07,6.95-45.68c2.76-2.27,13.51-.92,13.51-.92l3.45,2.07Z"/><g class="cls-13"><path class="cls-14" d="M568.34,234h-1.56a39.73,39.73,0,0,1,2.16,8.85c.5,4.49-2.38,12.65-7.91,12.62-2,0-2.73-.43-3-.74-.66,2.5-1.47,4.73-1.47,4.73l7.24,3.66s7,0,5.41-2.07c-1-1.4-.69-5.14-.35-7.47a11.69,11.69,0,0,0,4.45-8.07C573.91,240.53,571.8,236,568.34,234Z"/><path class="cls-14" d="M557.88,254.45a.28.28,0,0,1,0-.06v.05Z"/></g><path class="cls-15" d="M575.23,273.26l-2.05,28.89s-18.69,8.51-28.69-1.49l2.77-34.22s2.86-9.38,4-9.38,4.6-.15,5.41.95c4.61,6.28,11.32,1.15,11.32,1.15s4.9-.35,5.22,1.08S575.23,273.26,575.23,273.26Z"/><path class="cls-10" d="M571.19,259.68l2.7-1.11,12.4-11s11.45-15.26,11.93-18.13,1.11-9.22,1.9-8.26.32,5.08,1.91,3.18,5.88-7,8.11-4-3.82,8-5.09,9.86S592.33,254,589.79,257.14c-1.34,1.67-6,7.83-10.1,13.28a4.36,4.36,0,0,1-7.83-2.28Z"/><path class="cls-10" d="M553.33,257.05a39.36,39.36,0,0,1-4.79-2.08c-3.44-2.3-10.91-12-10.91-12s-9.42-16.59-9.53-19.49.07-9.29-.84-8.44-1,5-2.3,2.91-5-7.68-7.54-5,2.78,8.37,3.8,10.42S530.83,248.53,533,252s14,24.46,14,24.46Z"/><path class="cls-15" d="M548.54,254.49A99.49,99.49,0,0,1,537.63,243l-1.18.8-6,3.93.4.6c.51,6.88,16.09,28.15,16.09,28.15l9.58-10.63-2.33-8.79S549.5,255.31,548.54,254.49Z"/><path class="cls-15" d="M589.47,251.72l-3.42-4.6S575.64,257.79,569.84,259s-1.55,11.6-1.55,11.6l2.9,9,3.08-1.42s17.39-18.91,18.58-25.23S589.47,251.72,589.47,251.72Z"/><polygon class="cls-12" points="557.32 331.63 554.39 312.46 550.18 342.58 555.39 385.85 557.1 385.5 553.71 342.96 557.32 331.63 557.32 331.63"/><path class="cls-16" d="M575,268.84v8.51c3.37-3.74,16.77-18.87,17.81-24.38a5.12,5.12,0,0,0,0-2.71l-.31.71C588.86,259.93,575,268.84,575,268.84Z"/><path class="cls-16" d="M530.89,248.32c.45,6,12.48,23.13,15.44,27.25l.93-9.13C538.36,263.78,530.89,248.32,530.89,248.32Z"/><path class="cls-15" d="M586.9,245.52l-1.56,1.31a1,1,0,0,0-.21,1.29A15.45,15.45,0,0,0,592,254a1,1,0,0,0,1.33-.55l1-2.56a1,1,0,0,0-.38-1.19c-1.32-.89-4.29-2.92-5.75-4.14A1,1,0,0,0,586.9,245.52Z"/><path class="cls-15" d="M537.43,241.73,539,243a1,1,0,0,1,.21,1.29,15.45,15.45,0,0,1-6.87,5.84,1,1,0,0,1-1.33-.56l-1-2.56a1,1,0,0,1,.38-1.19c1.32-.89,4.29-2.92,5.75-4.13A1,1,0,0,1,537.43,241.73Z"/><path class="cls-9" d="M567.45,235.91a6.79,6.79,0,0,0,2.86,6.26c2.49,2,2.74,4.63,1.73,7.66s2,.2,3.43-3.18c2.12-5-.23-14.07-6.27-14.55S567.45,235.91,567.45,235.91Z"/><rect class="cls-15" x="479.58" y="345.42" width="55.07" height="44.04"/><path class="cls-16" d="M480,384.63h-.46v4.83h55.08v-44h-.34A57.19,57.19,0,0,1,480,384.63Z"/><path class="cls-9" d="M437.39,247.31s-5,20.56-1.62,22.83S450.58,268,450.58,268L452,255Z"/><path class="cls-17" d="M439.39,256.53l-1.89,1.33s-2.14,6.6-.12,10.1,3.2,1.08,3.2,1.08l2.48-8.35Z"/><path class="cls-9" d="M445.78,245.52s2.74-5.44,5.54-3.63,4.95,3.29,5.44,11.13.66,10.64,6.6,16.09.84,20.91-7,19.92-14.3-6.4-14.46-12.5,0-18.8,0-18.8Z"/><path class="cls-17" d="M463.36,269.11a25.12,25.12,0,0,1-3.78-4.15,5,5,0,0,0,.18,2.35c1.07,3.83-.5,10.77-5.86,9.3s-9,3.47-9.21,4.83a7.23,7.23,0,0,0,.17,1.88A18.86,18.86,0,0,0,456.38,289C464.2,290,469.3,274.55,463.36,269.11Z"/><ellipse class="cls-10" cx="443.68" cy="253.02" rx="10.2" ry="8.45" transform="translate(138.08 662.26) rotate(-82.94)"/><path class="cls-9" d="M449.21,377.61s-13.26,5.57-10.83,10.25,17.14-5.57,17.14-8.91S449.21,377.61,449.21,377.61Z"/><path class="cls-18" d="M443.83,307.35s-4,23-8.28,28A80,80,0,0,1,446.67,351c4.83,9.1,1.61,15.84,1.61,15.84L446,369.78a20.71,20.71,0,0,1-6.93-4.37c-3.06-3-14.85-14.83-16.42-23.81s-.38-21.22,1.27-27.51,3.67-12.24,6-13.81S443.83,307.35,443.83,307.35Z"/><path class="cls-19" d="M443.83,307.35s-4,23-8.28,28A80,80,0,0,1,446.67,351c4.83,9.1,1.61,15.84,1.61,15.84L446,369.78a20.71,20.71,0,0,1-6.93-4.37c-3.06-3-14.85-14.83-16.42-23.81s-.38-21.22,1.27-27.51,3.67-12.24,6-13.81S443.83,307.35,443.83,307.35Z"/><path class="cls-9" d="M453.5,366.14s3.13-1,4.76,3.64,3.5,19.1,0,16.87-6.05-10.18-6.05-10.18Z"/><path class="cls-20" d="M435.55,335.31c2.21-2.56,4.35-10,5.9-16.51l-5-8s-2.15,16.18-4.51,25c0,0,7.88,6.11,11.3,10.68.58.78,1.06,1.1,1.45,1.11A80.09,80.09,0,0,0,435.55,335.31Z"/><path class="cls-19" d="M453.1,301s.83-2.95,2.51.86c2.79,6.32,3.53,19.16-.6,34.47,0,0-.58.1.63,1.78,4.48,6.25,1.26,25.13,0,32.47s-1.65,9.26-1.65,9.26l-6.23-.42-1.82-.62L440,339.92s-5.06-30.66-4.45-36.75S447.71,297.12,453.1,301Z"/><path class="cls-20" d="M455.33,336.34c4.13-15.31,3.39-28.15.6-34.47-1.68-3.81-2.51-.86-2.51-.86a5.8,5.8,0,0,0-1.73-.85,24.35,24.35,0,0,0,.52,9.51c2.36,11.05,1.06,23.49-.78,28.47,0,0,3.69,2.81,3.69,9.42,0,5.14-1,24.11-1.42,32.26l.62,0s.4-1.93,1.65-9.26,4.47-26.22,0-32.47C454.75,336.44,455.33,336.34,455.33,336.34Z"/><path class="cls-10" d="M449.69,257s-2.45,8.67,0,9.25,5.65.7,6.8,3.15-1.57,31-.56,32.45c0,0-16.86,7.06-27.81,0,0,0,0-32.14,5-34.3,2.27-1,5.17-.72,5.6-2s.4-5.91.4-5.91"/><path class="cls-21" d="M456.49,269.42c-.88-1.88-4-2.76-6.3-3.15,0,0-2.67,10.54-8.27,10.26-6.3-.32-4.32-10.26-4.32-10.26a35,35,0,0,0-4.44,1.3c-5,2.16-5,34.3-5,34.3,10.95,7.06,27.81,0,27.81,0C454.92,300.42,457.64,271.87,456.49,269.42Z"/><path class="cls-10" d="M435,267l-1.79.55s-3.2,1.16-5.92,7.89c-1.75,4.34-7.91,21.61,2.62,23.7a9.54,9.54,0,0,0,2.77.13,16.63,16.63,0,0,0,8.42-2.94c3.93-3-.89-5.62-.89-5.62l-9.44-2.58S432.71,272.32,435,267Z"/><path class="cls-22" d="M435,267l-1.79.55s-3.2,1.16-5.92,7.89c-1.75,4.34-7.91,21.61,2.62,23.7a9.54,9.54,0,0,0,2.77.13,16.63,16.63,0,0,0,8.42-2.94c3.93-3-.89-5.62-.89-5.62l-9.44-2.58S432.71,272.32,435,267Z"/><path class="cls-10" d="M438.25,289.39s7.15-2.68,10.31-1.34-3.58,4.14-3.58,4.14Z"/><path class="cls-23" d="M438.25,289.39s7.15-2.68,10.31-1.34-3.58,4.14-3.58,4.14Z"/><path class="cls-9" d="M450.78,249.3a5.07,5.07,0,0,0-6.95-1.14c-4.64,2.92-11.93,1.81-11.27-2.64s4.48-7.6,8.43-5.11,7.69-.66,10.33,1.48S455,249.3,450.78,249.3Z"/><g class="cls-24"><path class="cls-14" d="M449.69,266.27a3,3,0,0,0,1.06.22Z"/><path class="cls-14" d="M449.5,267.31c-1.15-.52-1-4.23-.63-6.54,1-1,2.53-4.3,3.11-5.76l-3.87-7.58s.63,16.22-9.84,13.71a8.21,8.21,0,0,0,.86.7,17.19,17.19,0,0,1-.18,2.05A17.9,17.9,0,0,1,449.5,267.31Z"/></g><path class="cls-25" d="M432.42,287.67l-1.7.48s2.32,1.78,4.57,6.73c.95,2.09,1.78,3.54,2.41,3.29a31.3,31.3,0,0,0,2.88-1.83l-3.21-3.83Z"/><path class="cls-10" d="M455,268c4.57-.06,8.2,25.8-.56,32s-16.4-3.71-18-5.61-5.73-6.18-5.73-6.18l.08-.49a2.55,2.55,0,0,1,3.45-2c3.86,1.52,10.49,4.38,13.87,7.22,0,0,1.86-15.38,3.26-20.36C451.38,272.54,452.12,268,455,268Z"/><path class="cls-23" d="M455,268a2.65,2.65,0,0,0-.5.05,20.62,20.62,0,0,1,2.3,6.94c1,6.4,2.84,20.28-4.9,24.39s-15.43-5-15.43-5c1.57,1.9,9.21,11.79,18,5.61S459.55,267.9,455,268Z"/><path class="cls-9" d="M445.78,245.52s-.12,3.45,3.91,6.11c1.95,1.28-4,12.66-1.4,16.26l.2.28a5.18,5.18,0,0,0,9.23-3.84l-1.35-10.82-1.25-6.06Z"/><g class="cls-26"><path class="cls-9" d="M450.35,266.78l-.24-.26c-1.88-2-.86-7.48-.34-11.54-.9,4-3.29,10.38-1.48,12.91l.2.28a5.19,5.19,0,0,0,8.87-1.14A5.07,5.07,0,0,1,450.35,266.78Z"/><path class="cls-9" d="M449.43,250.21a9.46,9.46,0,0,1-3.06-2.29,8.9,8.9,0,0,0,3.32,3.71.79.79,0,0,1,.32.49C450,251.13,449.87,250.43,449.43,250.21Z"/></g><path class="cls-23" d="M448.12,292.9a6.35,6.35,0,0,1,1.29,1.42l-1.29-2.48Z"/><path class="cls-9" d="M504.14,269.26l9.45-1.48a10.76,10.76,0,0,1,7.33,5.34c2.77,4.78,3.5,14.88,1.24,20.72-1.75,4.53-9.53,10.7-19.57,10s-11.77-1.91-15.66.06-14.13,2.3-18.22-1.36-5.32-13-.3-16.16,1.88-6.07,4.09-9.3,7.17-5,12.56-3.2S501.46,270.6,504.14,269.26Z"/><path class="cls-27" d="M518.11,297.2a11.06,11.06,0,0,1,1.43-2.88,10.23,10.23,0,0,0,1-8.3,8.52,8.52,0,0,0-6-5.62c-4.28-1-9.27,1.55-12.94,3.55-1.56.86-3.92,2.33-5.77,1.65-3.53-1.3-8.95,0-11.64,2.88-3.73,4-9.75.44-10.4-3a6.24,6.24,0,0,0-2.28-3.53c-.15,1.45-.69,2.89-3.07,4.41-5,3.19-3.8,12.49.3,16.16s14.32,3.33,18.22,1.36,5.63-.78,15.66-.06a22.59,22.59,0,0,0,15.7-5A2.28,2.28,0,0,1,518.11,297.2Z"/><ellipse class="cls-10" cx="511.61" cy="280.09" rx="11.74" ry="9.72" transform="translate(216.44 783.15) rotate(-88.3)"/><path class="cls-10" d="M517.51,283.76s-3.1,10.31.4,13.4-5.44,4.81-5.44,4.81-9.64-5.49-7.27-5.43,1.9-6.84,1.06-12C505.62,280.61,517.51,283.76,517.51,283.76Z"/><path class="cls-28" d="M517.91,297.16c-1.55-1.37-1.8-4.17-1.6-6.85a12.4,12.4,0,0,0,5-9.93,13,13,0,0,0-2.61-8.39s1.83,13.48-4.55,17.16c0,0-3.81,2.6-7.63,1l.41.29c.18,3.35-.15,6.12-1.75,6.08-2.37-.06,7.27,5.43,7.27,5.43S521.41,300.24,517.91,297.16Z"/><path class="cls-29" d="M495.68,334.44A19.15,19.15,0,0,0,483,332.78c-3.63.88-7.51,4.09-8,8-.65,5.51,5.15,8.22,9.61,9.34,7.12,1.79,14.51,2,21.8,2.49,1.29.08,15.9,1.72,16.37.63l3.14-7.18Z"/><path class="cls-30" d="M506.64,296.29s4.51,1.81,12-.23a8.37,8.37,0,0,1,6.58.88,7.31,7.31,0,0,1,1.1.82c2.19,2,6,11,6.72,20.35s-15.14,11.71-15.14,11.71l-16.45.78-9.55-2.68.84-21s2.35-8.47,5.83-10.15C501.36,295.44,502.15,295.35,506.64,296.29Z"/><path class="cls-9" d="M495.77,352.86s-1.92,12.9-5.29,11.61-1.71-14.55,3.82-15.47S495.77,352.86,495.77,352.86Z"/><path class="cls-9" d="M525,352.86s1.92,12.9,5.29,11.61S532,349.92,526.49,349,525,352.86,525,352.86Z"/><path class="cls-21" d="M522.49,336.83c6-2.29,14.9-3.79,19.73,1.88a8.3,8.3,0,0,1-.53,10.72,11.67,11.67,0,0,1-5.25,2.41c-7.32,1.83-15,2.47-22.47,3-1.48.1-18,2-18.57.78l-2.21-6.45Z"/><path class="cls-10" d="M507,298.94l-4.15-2.66a2.82,2.82,0,0,0-2.77-.14l-13,6.62a39.76,39.76,0,0,1,2.46-24.19c2.18-5.09,1.6-5.05-.17-3.65s2.18-6.93-.4-8.42c-2.35-1.36-5.67,2.34-5.84,7.19-.63,18.12-7.36,26-6.22,33.52s2.89,14.21,18.15,10.35"/><path class="cls-30" d="M502.85,296.28a2.82,2.82,0,0,0-2.77-.14l-13,6.62s.07-10.28.8-17.46a10.35,10.35,0,0,1-6.31-1.73c-2.46,8.24-5.85,19-5.58,23.64.47,8.16,3.81,14.21,19.07,10.35L507,298.94Z"/><path class="cls-9" d="M499.41,284c-.64-.49.48-3.32.24-4.37a9.59,9.59,0,0,1,4.49-10.32c3.7-2.23,9.13-3.67,14.58,1.42,0,0,3.29,4.86-3.42,6.08-3.08.56-6.66-2.27-8.76,1.3"/><path class="cls-9" d="M517.61,272.52s-1.11,2.86,2.39,6.18c1.56,1.47,1.94,5.06,1.29,7.92s.65,1.57.65,1.57l.86-4.93s-.68-12.3-5.19-12.12S517.61,272.52,517.61,272.52Z"/><path class="cls-31" d="M487.08,302.76s-3.73,1.53-4.13,2.23l4.15-3.83Z"/><path class="cls-32" d="M514,354.85c7.51-.54,15.15-1.18,22.47-3a11.67,11.67,0,0,0,5.25-2.41c2.36-2.22,2.86-6.33,1.46-9.28,0,0,.76,6.31-5.14,8.73s-42.61,6.75-42.61,6.75C496,356.88,512.49,355,514,354.85Z"/><polyline class="cls-33" points="518.4 338.53 508.23 339.22 493.19 349.18"/><path class="cls-34" d="M488.33,307.17h44.19a4.16,4.16,0,0,1,4.16,4.16V336a4.17,4.17,0,0,1-4.17,4.17H488.33a4.17,4.17,0,0,1-4.17-4.17V311.33A4.16,4.16,0,0,1,488.33,307.17Z"/><path class="cls-35" d="M535.78,307.76a37,37,0,0,1-36,28.82H484.16v1a2.53,2.53,0,0,0,2.53,2.53h47.46a2.53,2.53,0,0,0,2.53-2.53V309.69A2.53,2.53,0,0,0,535.78,307.76Z"/><path class="cls-3" d="M514.7,323.66a4.28,4.28,0,1,1-4.28-4.29A4.28,4.28,0,0,1,514.7,323.66Z"/><path class="cls-3" d="M590.79,273a16.13,16.13,0,0,1,3.82,2.8l-.06.05A16.42,16.42,0,0,0,590.79,273Z"/><path class="cls-3" d="M597.26,279.74a13,13,0,0,1,1,4.65H598a12.7,12.7,0,0,0-.88-4.6Z"/><path class="cls-3" d="M597.69,289.12a27.64,27.64,0,0,1-1.53,4.52l-.35-.16a27.8,27.8,0,0,0,1.58-4.43Z"/><polygon class="cls-3" points="594.01 297.88 591.45 301.89 591 301.58 593.61 297.64 594.01 297.88"/><polygon class="cls-3" points="588.6 305.7 585.52 309.32 585.02 308.87 588.11 305.3 588.6 305.7"/><polygon class="cls-3" points="582.27 312.79 578.9 316.14 578.38 315.59 581.77 312.29 582.27 312.79"/><polygon class="cls-3" points="575.41 319.36 571.83 322.49 571.29 321.84 574.88 318.76 575.41 319.36"/><polygon class="cls-3" points="568.17 325.51 564.44 328.45 563.87 327.71 567.62 324.81 568.17 325.51"/><polygon class="cls-3" points="560.64 331.3 556.79 334.08 556.21 333.24 560.07 330.51 560.64 331.3"/><polygon class="cls-3" points="552.89 336.78 548.94 339.4 548.35 338.5 552.3 335.9 552.89 336.78"/><polygon class="cls-3" points="544.93 341.96 540.89 344.45 540.32 343.5 544.36 341.03 544.93 341.96"/><polygon class="cls-3" points="536.81 346.88 532.69 349.24 532.13 348.25 536.25 345.9 536.81 346.88"/><polygon class="cls-3" points="528.54 351.54 524.36 353.79 523.82 352.76 527.99 350.53 528.54 351.54"/><polygon class="cls-3" points="520.15 355.98 515.9 358.11 515.38 357.03 519.61 354.92 520.15 355.98"/><polygon class="cls-3" points="511.64 360.18 507.33 362.19 506.82 361.08 511.12 359.08 511.64 360.18"/><polygon class="cls-3" points="503.01 364.15 498.66 366.05 498.17 364.89 502.51 363.01 503.01 364.15"/><polygon class="cls-3" points="494.28 367.88 489.87 369.65 489.41 368.48 493.8 366.71 494.28 367.88"/><polygon class="cls-3" points="485.43 371.35 480.97 372.98 480.56 371.83 485 370.19 485.43 371.35"/><polygon class="cls-3" points="476.49 374.54 471.98 376.04 471.61 374.9 476.1 373.4 476.49 374.54"/><polygon class="cls-3" points="467.45 377.45 462.88 378.79 462.57 377.67 467.1 376.32 467.45 377.45"/><polygon class="cls-3" points="458.3 380.04 453.69 381.2 453.43 380.1 458.01 378.93 458.3 380.04"/><polygon class="cls-3" points="449.06 382.26 444.4 383.22 444.19 382.13 448.82 381.17 449.06 382.26"/><polygon class="cls-3" points="439.72 384.05 435.01 384.75 434.87 383.68 439.55 382.98 439.72 384.05"/><polygon class="cls-3" points="430.29 385.29 425.54 385.64 425.48 384.64 430.19 384.25 430.29 385.29"/><polygon class="cls-3" points="420.77 385.78 416 385.65 416.05 384.74 420.77 384.82 420.77 385.78"/><polygon class="cls-3" points="411.25 385.2 406.54 384.3 406.74 383.5 411.36 384.34 411.25 385.2"/><path class="cls-3" d="M402,382.8a20.49,20.49,0,0,1-4.2-2.37l.44-.6a19.45,19.45,0,0,0,4.07,2.25Z"/><path class="cls-3" d="M394.43,376.93a19.26,19.26,0,0,1-1.13-2.16,12.46,12.46,0,0,1-.68-2.33l.64-.12a11.39,11.39,0,0,0,.67,2.2,18,18,0,0,0,1.08,2Z"/><path class="cls-3" d="M392.54,367.63a22.32,22.32,0,0,1,1.17-4.65l.48.17a22.3,22.3,0,0,0-1.07,4.55Z"/><polygon class="cls-3" points="395.67 358.63 398.11 354.55 398.41 354.74 396.05 358.83 395.67 358.63"/><polygon class="cls-3" points="400.89 350.7 403.91 347.04 404.06 347.17 401.11 350.86 400.89 350.7"/><polygon class="cls-3" points="407.12 343.54 410.47 340.19 410.5 340.21 407.2 343.62 407.12 343.54"/><path class="cls-3" d="M602.52,345.71a16.13,16.13,0,0,1,1.2,4.58h-.07A16.18,16.18,0,0,0,602.52,345.71Z"/><path class="cls-3" d="M603.3,355a12.73,12.73,0,0,1-2.17,4.22l-.19-.14a12.71,12.71,0,0,0,2.22-4.13Z"/><path class="cls-3" d="M597.73,362.55a26.78,26.78,0,0,1-4,2.54l-.18-.34a27.77,27.77,0,0,0,4-2.44Z"/><polygon class="cls-3" points="589.35 367.03 584.83 368.53 584.69 368.01 589.19 366.6 589.35 367.03"/><polygon class="cls-3" points="580.22 369.69 575.55 370.56 575.44 369.9 580.1 369.08 580.22 369.69"/><polygon class="cls-3" points="570.84 371.21 566.11 371.68 566.05 370.93 570.76 370.5 570.84 371.21"/><polygon class="cls-3" points="561.37 371.99 556.63 372.15 556.61 371.31 561.34 371.19 561.37 371.99"/><polygon class="cls-3" points="551.88 372.19 547.13 372.12 547.16 371.19 551.89 371.31 551.88 372.19"/><polygon class="cls-3" points="542.38 371.95 537.64 371.68 537.72 370.66 542.43 370.97 542.38 371.95"/><polygon class="cls-3" points="532.91 371.31 528.19 370.86 528.3 369.78 533.01 370.26 532.91 371.31"/><polygon class="cls-3" points="523.47 370.32 518.76 369.7 518.92 368.6 523.61 369.23 523.47 370.32"/><polygon class="cls-3" points="514.07 369.01 509.38 368.25 509.57 367.13 514.24 367.9 514.07 369.01"/><polygon class="cls-3" points="504.71 367.43 500.04 366.53 500.27 365.39 504.92 366.29 504.71 367.43"/><polygon class="cls-3" points="495.39 365.57 490.75 364.55 491.02 363.39 495.64 364.42 495.39 365.57"/><polygon class="cls-3" points="486.14 363.47 481.53 362.32 481.83 361.14 486.42 362.29 486.14 363.47"/><polygon class="cls-3" points="476.94 361.12 472.36 359.85 472.7 358.64 477.26 359.92 476.94 361.12"/><polygon class="cls-3" points="467.8 358.51 463.27 357.1 463.65 355.91 468.17 357.3 467.8 358.51"/><polygon class="cls-3" points="458.76 355.62 454.26 354.08 454.67 352.93 459.15 354.45 458.76 355.62"/><polygon class="cls-3" points="449.8 352.47 445.35 350.78 445.78 349.67 450.21 351.33 449.8 352.47"/><polygon class="cls-3" points="440.94 349.02 436.56 347.19 437.02 346.12 441.39 347.93 440.94 349.02"/><polygon class="cls-3" points="432.21 345.27 427.9 343.27 428.39 342.24 432.69 344.22 432.21 345.27"/><polygon class="cls-3" points="423.64 341.17 419.42 338.98 419.94 338 424.14 340.17 423.64 341.17"/><polygon class="cls-3" points="415.26 336.67 411.17 334.25 411.73 333.33 415.8 335.73 415.26 336.67"/><polygon class="cls-3" points="407.16 331.69 403.25 328.96 403.83 328.15 407.73 330.81 407.16 331.69"/><polygon class="cls-3" points="399.46 326.07 395.84 322.96 396.45 322.29 400.06 325.32 399.46 326.07"/><polygon class="cls-3" points="392.43 319.62 389.34 315.95 390 315.45 393.06 319.02 392.43 319.62"/><path class="cls-3" d="M386.75,311.91a20.47,20.47,0,0,1-1.77-4.49l.72-.18a19.48,19.48,0,0,0,1.74,4.3Z"/><path class="cls-3" d="M384.59,302.6a19.08,19.08,0,0,1,.48-2.39A12.62,12.62,0,0,1,386,298l.58.3a12,12,0,0,0-.87,2.14,19,19,0,0,0-.44,2.25Z"/><path class="cls-3" d="M389,294.18a23.35,23.35,0,0,1,3.85-2.87l.26.44a22.35,22.35,0,0,0-3.7,2.85Z"/><polygon class="cls-3" points="397.08 289.17 401.55 287.54 401.66 287.88 397.25 289.56 397.08 289.17"/><polygon class="cls-3" points="406.14 286.3 410.79 285.37 410.83 285.56 406.2 286.57 406.14 286.3"/><polygon class="cls-3" points="415.48 284.67 420.2 284.18 420.2 284.22 415.5 284.79 415.48 284.67"/><rect class="cls-2" x="255.75" y="175.48" width="359.33" height="233.97"/></g><g id="Layer_5" data-name="Layer 5"><text class="cls-36" transform="translate(123.36 179.69) scale(1.01 1)">About <tspan class="cls-37" x="83.15" y="0">U</tspan><tspan x="100.52" y="0">s</tspan></text></g><g id="Layer_6" data-name="Layer 6"><text class="cls-38" transform="translate(39.75 222.35)"><tspan class="cls-39">W</tspan><tspan class="cls-40" x="15.06" y="0">e</tspan><tspan class="cls-41" x="23.64" y="0">l</tspan><tspan class="cls-42" x="27.19" y="0">c</tspan><tspan class="cls-43" x="35.24" y="0">om</tspan><tspan x="57.33" y="0">e </tspan><tspan class="cls-44" x="72.54" y="0">t</tspan><tspan x="78.13" y="0">o Ka</tspan><tspan class="cls-43" x="115.01" y="0">t</tspan><tspan x="120.5" y="0">a </tspan><tspan class="cls-45" x="136.18" y="0">J</tspan><tspan class="cls-42" x="146.04" y="0">a</tspan><tspan class="cls-46" x="155.07" y="0">n</tspan><tspan x="164.35" y="0">e, </tspan><tspan class="cls-42" x="182.71" y="0">t</tspan><tspan class="cls-43" x="188.4" y="0">h</tspan><tspan x="197.52" y="0">e </tspan><tspan class="cls-41" x="212.72" y="0">u</tspan><tspan class="cls-43" x="220.95" y="0">l</tspan><tspan class="cls-46" x="224.09" y="0">t</tspan><tspan class="cls-43" x="229.74" y="0">i</tspan><tspan class="cls-42" x="233.36" y="0">m</tspan><tspan x="246.6" y="0">a</tspan><tspan class="cls-47" x="256.03" y="0">t</tspan><tspan class="cls-48" x="261.46" y="0">e</tspan><tspan class="cls-41" x="0" y="25">p</tspan><tspan class="cls-42" x="10.07" y="25">l</tspan><tspan x="13.41" y="25">a</tspan><tspan class="cls-41" x="22.83" y="25">t</tspan><tspan class="cls-42" x="28.72" y="25">fo</tspan><tspan class="cls-49" x="42.64" y="25">r</tspan><tspan x="48.86" y="25">m </tspan><tspan class="cls-42" x="68.76" y="25">fo</tspan><tspan x="82.68" y="25">r </tspan><tspan class="cls-50" x="95.14" y="25">d</tspan><tspan class="cls-43" x="104.44" y="25">i</tspan><tspan class="cls-41" x="108.07" y="25">s</tspan><tspan class="cls-42" x="116.17" y="25">c</tspan><tspan class="cls-51" x="124.23" y="25">o</tspan><tspan class="cls-52" x="132.67" y="25">v</tspan><tspan class="cls-41" x="141.1" y="25">er</tspan><tspan class="cls-43" x="155.86" y="25">i</tspan><tspan class="cls-44" x="159.48" y="25">n</tspan><tspan x="168.7" y="25">g, </tspan><tspan class="cls-53" x="188.14" y="25">p</tspan><tspan class="cls-54" x="198.11" y="25">r</tspan><tspan class="cls-43" x="203.69" y="25">o</tspan><tspan class="cls-42" x="212.73" y="25">m</tspan><tspan class="cls-55" x="225.98" y="25">o</tspan><tspan class="cls-46" x="234.95" y="25">t</tspan><tspan class="cls-43" x="240.6" y="25">i</tspan><tspan class="cls-44" x="244.22" y="25">n</tspan><tspan x="253.44" y="25">g, </tspan><tspan class="cls-56" x="272.88" y="25">a</tspan><tspan class="cls-57" x="281.9" y="25">n</tspan><tspan x="291.2" y="25">d </tspan><tspan class="cls-42" x="0" y="50">ma</tspan><tspan class="cls-43" x="22.27" y="50">n</tspan><tspan class="cls-41" x="31.39" y="50">a</tspan><tspan class="cls-58" x="40.62" y="50">g</tspan><tspan class="cls-43" x="49.93" y="50">i</tspan><tspan class="cls-44" x="53.55" y="50">n</tspan><tspan x="62.77" y="50">g </tspan><tspan class="cls-59" x="79.05" y="50">e</tspan><tspan class="cls-52" x="86.89" y="50">v</tspan><tspan class="cls-43" x="95.33" y="50">en</tspan><tspan class="cls-60" x="112.8" y="50">t</tspan><tspan x="118.09" y="50">s. O</tspan><tspan class="cls-41" x="152.02" y="50">u</tspan><tspan x="160.24" y="50">r </tspan><tspan class="cls-60" x="172.71" y="50">m</tspan><tspan class="cls-43" x="185.55" y="50">i</tspan><tspan class="cls-41" x="189.17" y="50">s</tspan><tspan class="cls-43" x="197.28" y="50">si</tspan><tspan class="cls-44" x="208.6" y="50">o</tspan><tspan x="217.74" y="50">n </tspan><tspan class="cls-43" x="233.72" y="50">i</tspan><tspan x="237.34" y="50">s </tspan><tspan class="cls-44" x="251.9" y="50">t</tspan><tspan class="cls-48" x="257.49" y="50">o </tspan><tspan class="cls-61" x="273.39" y="50">sim</tspan><tspan class="cls-41" x="297.76" y="50">p</tspan><tspan class="cls-42" x="307.83" y="50">l</tspan><tspan class="cls-62" x="311.17" y="50">i</tspan><tspan x="315.15" y="50">fy</tspan><tspan class="cls-59" x="0" y="75">e</tspan><tspan class="cls-52" x="7.84" y="75">v</tspan><tspan class="cls-43" x="16.28" y="75">en</tspan><tspan x="33.75" y="75">t </tspan><tspan class="cls-41" x="46.09" y="75">p</tspan><tspan class="cls-42" x="56.16" y="75">la</tspan><tspan class="cls-43" x="68.53" y="75">n</tspan><tspan class="cls-60" x="77.65" y="75">n</tspan><tspan class="cls-43" x="86.56" y="75">i</tspan><tspan class="cls-44" x="90.19" y="75">n</tspan><tspan x="99.4" y="75">g </tspan><tspan class="cls-42" x="115.68" y="75">a</tspan><tspan class="cls-57" x="124.71" y="75">n</tspan><tspan x="134" y="75">d </tspan><tspan class="cls-63" x="149.69" y="75">c</tspan><tspan class="cls-64" x="158.07" y="75">r</tspan><tspan class="cls-41" x="163.79" y="75">e</tspan><tspan x="172.54" y="75">a</tspan><tspan class="cls-47" x="181.96" y="75">t</tspan><tspan x="187.4" y="75">e </tspan><tspan class="cls-65" x="202.61" y="75">e</tspan><tspan class="cls-60" x="210.62" y="75">x</tspan><tspan class="cls-43" x="219.05" y="75">c</tspan><tspan class="cls-53" x="226.91" y="75">e</tspan><tspan class="cls-60" x="235.56" y="75">p</tspan><tspan class="cls-46" x="245.02" y="75">t</tspan><tspan class="cls-43" x="250.66" y="75">i</tspan><tspan class="cls-66" x="254.29" y="75">o</tspan><tspan class="cls-43" x="263.43" y="75">n</tspan><tspan class="cls-67" x="272.55" y="75">a</tspan><tspan x="281.78" y="75">l </tspan><tspan class="cls-65" x="0" y="100">e</tspan><tspan class="cls-41" x="8.01" y="100">x</tspan><tspan class="cls-63" x="17.05" y="100">p</tspan><tspan class="cls-41" x="27.24" y="100">er</tspan><tspan class="cls-68" x="41.99" y="100">i</tspan><tspan class="cls-43" x="45.63" y="100">e</tspan><tspan class="cls-62" x="53.98" y="100">n</tspan><tspan class="cls-43" x="63.46" y="100">c</tspan><tspan class="cls-69" x="71.32" y="100">e</tspan><tspan x="79.98" y="100">s </tspan><tspan class="cls-42" x="94.54" y="100">fo</tspan><tspan x="108.46" y="100">r </tspan><tspan class="cls-42" x="120.92" y="100">o</tspan><tspan class="cls-43" x="130.16" y="100">r</tspan><tspan class="cls-44" x="135.76" y="100">g</tspan><tspan class="cls-42" x="145.28" y="100">a</tspan><tspan class="cls-60" x="154.31" y="100">n</tspan><tspan class="cls-45" x="163.22" y="100">i</tspan><tspan class="cls-60" x="166.45" y="100">z</tspan><tspan class="cls-41" x="174.67" y="100">e</tspan><tspan class="cls-43" x="183.42" y="100">r</tspan><tspan x="189.02" y="100">s </tspan><tspan class="cls-42" x="203.58" y="100">a</tspan><tspan class="cls-57" x="212.61" y="100">n</tspan><tspan x="221.9" y="100">d at</tspan><tspan class="cls-47" x="253.1" y="100">t</tspan><tspan class="cls-70" x="258.54" y="100">e</tspan><tspan class="cls-57" x="266.88" y="100">n</tspan><tspan class="cls-67" x="276.18" y="100">de</tspan><tspan class="cls-69" x="294.16" y="100">e</tspan><tspan x="302.82" y="100">s</tspan><tspan class="cls-41" x="0" y="125">a</tspan><tspan class="cls-42" x="9.23" y="125">li</tspan><tspan class="cls-45" x="16.39" y="125">k</tspan><tspan x="24.21" y="125">e. </tspan><tspan class="cls-45" x="42.47" y="125">J</tspan><tspan class="cls-43" x="52.33" y="125">oi</tspan><tspan x="65" y="125">n </tspan><tspan class="cls-42" x="80.98" y="125">u</tspan><tspan x="88.99" y="125">s </tspan><tspan class="cls-44" x="103.55" y="125">o</tspan><tspan x="112.7" y="125">n Ka</tspan><tspan class="cls-43" x="149.66" y="125">t</tspan><tspan x="155.15" y="125">a </tspan><tspan class="cls-45" x="170.83" y="125">J</tspan><tspan class="cls-42" x="180.69" y="125">a</tspan><tspan class="cls-46" x="189.72" y="125">n</tspan><tspan x="198.99" y="125">e </tspan><tspan class="cls-42" x="214.2" y="125">a</tspan><tspan class="cls-57" x="223.22" y="125">n</tspan><tspan x="232.52" y="125">d </tspan><tspan class="cls-42" x="248.2" y="125">l</tspan><tspan class="cls-71" x="251.54" y="125">e</tspan><tspan x="259.95" y="125">t&apos;s</tspan><tspan class="cls-42" x="0" y="150">m</tspan><tspan class="cls-41" x="13.24" y="150">a</tspan><tspan class="cls-45" x="22.47" y="150">k</tspan><tspan x="30.29" y="150">e </tspan><tspan class="cls-59" x="45.5" y="150">e</tspan><tspan class="cls-52" x="53.34" y="150">v</tspan><tspan class="cls-41" x="61.78" y="150">e</tspan><tspan class="cls-72" x="70.53" y="150">r</tspan><tspan x="76.92" y="150">y </tspan><tspan class="cls-59" x="92.84" y="150">e</tspan><tspan class="cls-52" x="100.68" y="150">v</tspan><tspan class="cls-43" x="109.12" y="150">en</tspan><tspan x="126.59" y="150">t </tspan><tspan class="cls-65" x="138.94" y="150">e</tspan><tspan x="146.94" y="150">x</tspan><tspan class="cls-42" x="156.18" y="150">t</tspan><tspan class="cls-43" x="161.87" y="150">r</tspan><tspan class="cls-42" x="167.47" y="150">ao</tspan><tspan class="cls-47" x="185.73" y="150">r</tspan><tspan class="cls-50" x="191.29" y="150">d</tspan><tspan class="cls-43" x="200.6" y="150">in</tspan><tspan class="cls-73" x="213.34" y="150">a</tspan><tspan class="cls-72" x="222.71" y="150">r</tspan><tspan x="229.1" y="150">y.</tspan></text></g></g></svg>